ffmpeg version 4.2.2-tessus  https://evermeet.cx/ffmpeg/  Copyright (c) 2000-2019 the FFmpeg developers
  built with Apple clang version 11.0.0 (clang-1100.0.33.16)
  configuration: --cc=/usr/bin/clang --prefix=/opt/ffmpeg --extra-version=tessus --enable-avisynth --enable-fontconfig --enable-gpl --enable-libaom --enable-libass --enable-libbluray --enable-libdav1d --enable-libfreetype --enable-libgsm --enable-libmodplug --enable-libmp3lame --enable-libmysofa --enable-libopencore-amrnb --enable-libopencore-amrwb --enable-libopenh264 --enable-libopenjpeg --enable-libopus --enable-librubberband --enable-libshine --enable-libsnappy --enable-libsoxr --enable-libspeex --enable-libtheora --enable-libtwolame --enable-libvidstab --enable-libvmaf --enable-libvo-amrwbenc --enable-libvorbis --enable-libvpx --enable-libwavpack --enable-libwebp --enable-libx264 --enable-libx265 --enable-libxavs --enable-libxvid --enable-libzimg --enable-libzmq --enable-libzvbi --enable-version3 --pkg-config-flags=--static --disable-ffplay
  libavutil      56. 31.100 / 56. 31.100
  libavcodec     58. 54.100 / 58. 54.100
  libavformat    58. 29.100 / 58. 29.100
  libavdevice    58.  8.100 / 58.  8.100
  libavfilter     7. 57.100 /  7. 57.100
  libswscale      5.  5.100 /  5.  5.100
  libswresample   3.  5.100 /  3.  5.100
  libpostproc    55.  5.100 / 55.  5.100
Input #0, rawvideo, from 'pipe:':
  Duration: N/A, start: 0.000000, bitrate: 139449 kb/s
    Stream #0:0: Video: rawvideo (RGB[24] / 0x18424752), rgb24, 1440x807, 139449 kb/s, 5 tbr, 5 tbn, 5 tbc
Codec AVOption preset (Configuration preset) specified for output file #0 (starworms.mp4) has not been used for any stream. The most likely reason is either wrong type (e.g. a video option with no video streams) or that it is a private option of some encoder which was not actually used for any stream.
Stream mapping:
  Stream #0:0 -> #0:0 (rawvideo (native) -> h264 (h264_videotoolbox))
Output #0, mp4, to 'starworms.mp4':
  Metadata:
    encoder         : Lavf58.29.100
    Stream #0:0: Video: h264 (h264_videotoolbox) (avc1 / 0x31637661), yuv420p, 1440x807, q=2-31, 200 kb/s, 5 fps, 10240 tbn, 5 tbc
    Metadata:
      encoder         : Lavc58.54.100 h264_videotoolbox
frame=    5 fps=0.0 q=-0.0 size=     256kB time=00:00:00.20 bitrate=10482.5kbits/s speed=0.358x    frame=    6 fps=4.6 q=-0.0 size=     256kB time=00:00:00.40 bitrate=5242.6kbits/s speed=0.307x    frame=    9 fps=4.9 q=-0.0 size=     256kB time=00:00:01.00 bitrate=2097.3kbits/s speed=0.548x    frame=   11 fps=1.4 q=-0.0 size=     256kB time=00:00:01.40 bitrate=1498.1kbits/s speed=0.18x    frame=   14 fps=1.7 q=-0.0 size=     256kB time=00:00:02.00 bitrate=1048.7kbits/s speed=0.241x    frame=   15 fps=0.8 q=-0.0 size=     256kB time=00:00:02.20 bitrate= 953.4kbits/s speed=0.123x    frame=   19 fps=0.7 q=-0.0 size=     256kB time=00:00:03.00 bitrate= 699.2kbits/s speed=0.108x    frame=   22 fps=0.6 q=-0.0 size=     256kB time=00:00:03.60 bitrate= 582.6kbits/s speed=0.101x    frame=   26 fps=0.6 q=-0.0 size=     256kB time=00:00:04.40 bitrate= 476.7kbits/s speed=0.105x    frame=   29 fps=0.6 q=-0.0 size=     256kB time=00:00:05.00 bitrate= 419.5kbits/s speed=0.0956x    frame=   32 fps=0.5 q=-0.0 size=     256kB time=00:00:05.60 bitrate= 374.6kbits/s speed=0.0932x    frame=   34 fps=0.5 q=-0.0 size=     256kB time=00:00:06.00 bitrate= 349.6kbits/s speed=0.0862x    frame=   37 fps=0.5 q=-0.0 size=     256kB time=00:00:06.60 bitrate= 317.8kbits/s speed=0.0873x    frame=   40 fps=0.5 q=-0.0 size=     256kB time=00:00:07.20 bitrate= 291.3kbits/s speed=0.0857x    frame=   40 fps=0.5 q=-0.0 Lsize=     490kB time=00:00:07.80 bitrate= 515.0kbits/s speed=0.0927x    
video:489kB audio:0kB subtitle:0kB other streams:0kB global headers:0kB muxing overhead: 0.197946%
